<?xml version="1.0" standalone="no"?><!DOCTYPE svg PUBLIC "-//W3C//DTD SVG 1.1//EN" "http://www.w3.org/Graphics/SVG/1.1/DTD/svg11.dtd"><svg t="1617863711371" class="icon" viewBox="0 0 1025 1024" version="1.1" xmlns="http://www.w3.org/2000/svg" p-id="3673" xmlns:xlink="http://www.w3.org/1999/xlink" width="200.1953125" height="200"><defs><style type="text/css"></style></defs><path d="M760.331392 451.050968c4.456107 0 8.067177 3.612078 8.067177 8.067177s-3.61107 8.067177-8.067177 8.067177-8.067177-3.612078-8.067177-8.067177S755.875286 451.050968 760.331392 451.050968z" p-id="3674" fill="#000000"></path><path d="M758.314598 455.084557l3.025191 0 0 1.008397-3.025191 0L758.314598 455.084557z" p-id="3675" fill="#000000"></path><path d="M761.339789 456.092954l1.008397 0 0 6.050382-1.008397 0L761.339789 456.092954z" p-id="3676" fill="#000000"></path><path d="M757.306201 456.092954l1.008397 0 0 6.050382-1.008397 0L757.306201 456.092954z" p-id="3677" fill="#000000"></path><path d="M758.314598 460.126542l2.016794 0 0 1.008397-2.016794 0L758.314598 460.126542z" p-id="3678" fill="#000000"></path><path d="M760.331392 461.134939l1.008397 0 0 3.025191-1.008397 0L760.331392 461.134939z" p-id="3679" fill="#000000"></path><path d="M758.314598 462.143336l2.016794 0 0 1.008397-2.016794 0L758.314598 462.143336z" p-id="3680" fill="#000000"></path><path d="M761.339789 463.151733l1.008397 0 0 1.008397-1.008397 0L761.339789 463.151733z" p-id="3681" fill="#000000"></path><path d="M504.712819 584.271314 504.712819 647.358652 567.801165 647.358652 567.801165 331.915913 378.536127 331.915913 378.536127 584.271314Z" p-id="3682" fill="#000000"></path><path d="M504.712819 16.470149c-278.78448 0-504.713827 225.985817-504.713827 504.710802 0 278.723976 225.929347 504.707777 504.713827 504.707777s504.708785-225.984809 504.708785-504.707777C1009.421604 242.455967 783.497298 16.470149 504.712819 16.470149zM630.890519 710.446998 567.801165 710.446998l0 63.090363 63.089354 0 0 63.087338L567.801165 836.624698l-63.088346 0 0-63.087338L378.536127 773.53736l0-63.090363-63.088346 0L315.44778 331.915913l63.088346 0L378.536127 268.826559 567.801165 268.826559l0 63.089354 63.089354 0L630.890519 710.446998z" p-id="3683" fill="#000000"></path><path d="M378.536127 647.358652l126.176692 0 0 63.088346-126.176692 0 0-63.088346Z" p-id="3684" fill="#000000"></path></svg>